<svg viewBox="0 0 400 400" xmlns="http://www.w3.org/2000/svg" id="Facetime-Meeting-2--Streamline-Brooklyn" height="400" width="400">
  <desc>
    Facetime Meeting 2 Streamline Illustration: https://streamlinehq.com
  </desc>
  <path d="M104.626 73.286c-2.274 0.56 -4.316 4.2 -2.8 4.728 1.072 0.376 0.962 -1.548 3.3 -2.456 1.356 -0.528 0.958 -2.63 -0.5 -2.272Z" fill="#262f3f" stroke-width="2"></path>
  <path d="M107.236 82c0.78 -0.862 -0.076 -4.038 -1.534 -3.07 -1.06 0.82 0.192 4.56 1.534 3.07Z" fill="#262f3f" stroke-width="2"></path>
  <path d="M81.142 96.4a109.06 109.06 0 0 1 0 13.816c0 1.166 1.534 1.2 1.8 0a80.376 80.376 0 0 0 0.552 -13.554c3.454 -0.738 6.232 -4.6 7.322 -6.986a3.712 3.712 0 0 0 5.034 0.922c1.028 -0.952 0.246 -2.24 -1.044 -1.78 -1 0.354 -1.8 -0.248 -2.332 -1.152 -0.704 -1.184 -1.538 -5.686 0.214 -6.524 1.65 -0.788 4.164 1.2 4.544 -0.506a21.5 21.5 0 0 0 0.676 -10.346c5.91 0 19.338 -1.888 20.4 -13.616 1.224 -13.524 -41.214 -3.31 -47.984 5.91 -6.266 8.53 5.46 30.52 10.818 33.816Z" fill="#262f3f" stroke-width="2"></path>
  <path d="M111.718 88.422c1.95 -0.138 2.2 -1.828 1.95 -3.562a56.42 56.42 0 0 0 -4.114 -14.03 0.828 0.828 0 0 0 -1.536 0.614 143.358 143.358 0 0 1 3.654 14.46c0.074 0.37 0.108 0.338 -0.276 0.384 -1.568 0.188 -3.964 -0.714 -3.8 2.472a11.968 11.968 0 0 0 0.138 2.24 6.288 6.288 0 0 1 -4.6 -0.936c-1.146 -0.766 -1.92 0.2 -1.628 1.536a6.662 6.662 0 0 0 6.018 5.218c0 1.858 -0.092 3.946 -2.2 4.498a23.63 23.63 0 0 1 -7.428 -0.26c-0.856 -0.158 -1.45 1.1 -0.584 1.534a8.182 8.182 0 0 0 2.502 0.768 50.28 50.28 0 0 0 1.212 7.812 0.922 0.922 0 1 0 1.782 -0.444c-0.37 -2.302 -0.83 -4.744 -1.06 -7.168a11.454 11.454 0 0 0 4.6 -0.384c3.07 -1.168 3.284 -4.084 3.07 -6.908 0 -0.676 0 -1.628 -1.228 -1.428 0 0 -2.304 0.646 -4.33 -2.44a7.38 7.38 0 0 0 3.8 0.552c2.902 -0.354 2.01 -1.294 2.01 -4.36a7.538 7.538 0 0 1 2.048 -0.168Z" fill="#262f3f" stroke-width="2"></path>
  <path d="M31.8 122.468a1.274 1.274 0 0 0 2.2 -1.288c-1.8 -2.78 -4.144 -3.778 -6.14 -5.434a22.222 22.222 0 0 1 -4.06 -5.696c-1.058 -1.534 -2.386 -1.134 -1.658 0.922 1.946 5.458 4.476 6.074 9.658 11.496Z" fill="#262f3f" stroke-width="2"></path>
  <path d="M37.01 107.426a51.874 51.874 0 0 1 0.522 -14.538c0.308 -1.776 -0.59 -2.09 -1.536 -0.428 -1.544 2.71 -1.858 12.038 -0.844 15.226 0.332 1.046 1.904 0.552 1.858 -0.26Z" fill="#262f3f" stroke-width="2"></path>
  <path d="M32.728 113.028c-2.318 -8.55 -1.656 -11.958 -0.876 -20.14 0.092 -0.966 -1.25 -0.932 -1.534 -0.184 -2.276 5.97 -1.674 14.966 0.46 20.908a1.06 1.06 0 0 0 1.95 -0.584Z" fill="#262f3f" stroke-width="2"></path>
  <path d="M42.336 106.55a58.964 58.964 0 0 1 0.982 -10.6c0.356 -1.844 -0.72 -2.946 -1.704 -0.6a30.362 30.362 0 0 0 -1.304 11c0.152 2.45 2.002 2.734 2.026 0.2Z" fill="#262f3f" stroke-width="2"></path>
  <path d="M49.55 120.918c0.42 -6.216 -3.078 -10.04 -1.764 -19.954 0.152 -1.152 -1 -2.054 -1.642 0 -2.054 6.58 0.87 14.342 1.534 19.8 0.206 1.702 1.722 2.318 1.872 0.154Z" fill="#262f3f" stroke-width="2"></path>
  <path d="M205.322 208.4a28.508 28.508 0 0 1 -11.65 -6.954c-4.29 -4.91 -6.42 4.074 11.114 8.6a0.864 0.864 0 0 0 0.536 -1.646Z" fill="#262f3f" stroke-width="2"></path>
  <path d="M201.654 211.714a53.938 53.938 0 0 1 -11.298 -5.066c-0.6 -0.362 -2.262 0.2 -0.89 1.688a24.86 24.86 0 0 0 11.774 5.05c2.194 0.034 2.272 -1.186 0.414 -1.672Z" fill="#262f3f" stroke-width="2"></path>
  <path d="M183.188 198.498c-0.446 0.904 0.864 2 1.536 1.088 3.738 -5.062 11.236 -1.534 15.886 -4.972a1.212 1.212 0 0 0 -1.258 -2.072c-4.884 2.772 -13.294 0.122 -16.164 5.956Z" fill="#262f3f" stroke-width="2"></path>
  <path d="M189.696 193.416c1.214 -0.138 1.772 -0.824 1.32 -1.534 -0.656 -1.036 -3.256 -0.456 -4.6 -0.246 -2.644 0.4 -5.15 0.228 -5.234 1.428 -0.15 2.054 5.674 0.676 8.514 0.352Z" fill="#262f3f" stroke-width="2"></path>
  <path d="M191.278 216.918a154.8 154.8 0 0 1 -17.376 -7.768c-0.75 -0.388 -2.2 0.122 -0.784 1.534 2.274 2.256 14.23 7.17 17.6 7.676 0.76 0 1.402 -1.132 0.56 -1.442Z" fill="#262f3f" stroke-width="2"></path>
  <path d="M199.09 215.03c-4.6 -1.262 -6.8 -1.388 -11.4 -4.022 -1.014 -0.582 -2.06 0.818 -1.06 1.534a22.07 22.07 0 0 0 12.28 4.098 0.85 0.85 0 0 0 0.18 -1.61Z" fill="#262f3f" stroke-width="2"></path>
  <path d="M305.128 94.316c0 6.294 3.054 8.684 6.034 13.54 1.038 1.692 2.582 0.8 2.332 -0.37 -0.696 -3.256 -5.434 -4.774 -6.646 -13.262a0.862 0.862 0 0 0 -1.72 0.092Z" fill="#262f3f" stroke-width="2"></path>
  <path d="M319.236 91.354c0.63 -5.3 -1.81 -14.13 -4.36 -18.588a0.92 0.92 0 0 0 -1.642 0.828 44.874 44.874 0 0 1 3.638 17.638c-0.038 1.888 2.128 2.146 2.364 0.122Z" fill="#262f3f" stroke-width="2"></path>
  <path d="M329.6 107.226c-1.518 -8.17 -0.154 -23.03 -2.456 -30.316 -0.32 -1.014 -2.2 -1.536 -1.81 0.384 2.082 10 0.302 20.338 1.948 30.132 0.242 1.458 2.594 1.304 2.318 -0.2Z" fill="#262f3f" stroke-width="2"></path>
  <path d="M323.672 92.09c1.074 -3.162 -0.906 -14.32 -1.92 -17.176s-2.946 -3 -1.948 0.922a63.4 63.4 0 0 1 1.856 16.086 1.06 1.06 0 0 0 2.012 0.168Z" fill="#262f3f" stroke-width="2"></path>
  <path d="M308.736 76.848a35.248 35.248 0 0 1 3 20.17c-0.226 1.534 2.068 1.962 2.286 0.476A34.654 34.654 0 0 0 310.316 76a0.896 0.896 0 0 0 -1.58 0.848Z" fill="#262f3f" stroke-width="2"></path>
  <path d="M295.504 71.568c-4.184 -7.848 -14.8 -8.82 -22.456 -6.294 -7.382 2.432 -10.226 11.146 -10.746 18.282 -0.48 6.572 -0.116 16.888 1.842 22.258a12.29 12.29 0 0 0 10.438 8.704v5.4a0.938 0.938 0 0 0 1.858 0c0.2 -1.8 0.23 -3.622 0.338 -5.434 3.652 -0.4 8.918 -3.362 9.87 -7.214a0.822 0.822 0 0 0 -1.536 -0.584c-3.254 7 -16.624 9.072 -19.816 -4.988 -1.6 -10.324 -2.588 -26.814 5.862 -32.91 4.496 -3.242 18.344 -4.2 22.458 3.976a19.474 19.474 0 0 1 0.122 14.06 4.478 4.478 0 0 0 -5.418 2.576c-0.54 0.95 0.754 1.906 1.4 1.014 4.512 -6.268 6.91 7 2.224 7.106 -0.566 0.014 -2.654 -0.858 -2.654 0.8 0 0.86 0.89 1.428 1.672 1.628a54.518 54.518 0 0 0 2.15 16.778 0.942 0.942 0 0 0 1.81 -0.522 102.666 102.666 0 0 1 -2.086 -16.272c4.896 -1.136 4.482 -8.688 2.778 -11.45 1.226 -1.396 3.442 -10.256 -0.11 -16.914Z" fill="#262f3f" stroke-width="2"></path>
  <path d="M280.4 96.6c-0.334 -1.536 -1.702 -1.672 -2.318 -0.66a7.422 7.422 0 0 1 -6.876 3.238c-0.784 0 -1.1 0.704 -0.784 1.536C273.2 108 282.344 105.562 280.4 96.6Zm-1.704 1.826c0.154 4.974 -3.868 6.278 -6.064 2.778a8.664 8.664 0 0 0 6.064 -2.774Z" fill="#262f3f" stroke-width="2"></path>
  <path d="M275.488 91.43c1.534 -0.106 1.4 -4.542 -0.414 -4.082 -1.462 0.372 -1.382 4.206 0.414 4.082Z" fill="#262f3f" stroke-width="2"></path>
  <path d="M266.954 87.4c-1.534 0.298 -1.858 3.972 0 3.884 1.656 -0.084 1.396 -4.162 0 -3.884Z" fill="#262f3f" stroke-width="2"></path>
  <path d="M278.2 81.53c-3.8 -1.076 -5.08 2.334 -2.486 2.072a3.566 3.566 0 0 1 3.238 0.83c2.336 2.132 3.566 -1.676 -0.752 -2.902Z" fill="#262f3f" stroke-width="2"></path>
  <path d="M267.95 81.622a3.324 3.324 0 0 0 -2.654 1.336c-0.86 0.966 0 2.072 0.69 1.426a2.43 2.43 0 0 1 2.226 -0.812c1.258 0.106 1.812 -1.954 -0.262 -1.95Z" fill="#262f3f" stroke-width="2"></path>
  <path d="M273.662 96.712c0.86 -0.27 1.104 -1.656 0 -1.644a14.434 14.434 0 0 1 -3.24 -0.306c0.46 -2.626 1.462 -6.148 0.784 -6.494 -1.238 -0.628 -2.66 5.312 -2.81 6.356 -0.47 3.268 4.76 2.244 5.266 2.088Z" fill="#262f3f" stroke-width="2"></path>
  <path d="M265.632 282.83c5.666 2.18 14.384 3.3 23.624 3.746 -2.2 -11.2 -4.826 -24.052 -4.958 -35.306 -0.012 -1.058 1.522 -1.38 1.644 -0.276a275.2 275.2 0 0 0 6.568 35.688 258.72 258.72 0 0 0 30.424 -0.828c0.83 -9.64 1.934 -42.012 2.548 -67.28 -17.8 7.276 -50.654 6.97 -69.858 1.536 2.472 21.674 6.34 45.958 10.008 62.72Z" fill="#262f3f" stroke-width="2"></path>
  <path d="M89.338 254.662a24.832 24.832 0 0 1 -5.818 0.124 324.952 324.952 0 0 1 16.68 41.076c6.8 22.502 12.864 66.144 13.248 73.496 2.18 1.166 22.84 0.584 27.922 0 0 -4.942 3.022 -60.674 1.534 -81 -0.8 -10.836 -5.2 -43.916 -8.642 -68.692 -23.132 6.954 -53.724 7.262 -76.458 -1.98 1.764 28.168 4.824 54.71 -0.83 70.242a437.492 437.492 0 0 1 -28.95 58.744c1.168 1.46 16.148 10.746 24.73 15.72 24.866 -35 39.2 -55.814 43.886 -68.478a252.628 252.628 0 0 0 -15.458 -39.4 39.76 39.76 0 0 1 -7.414 -1.98c-0.906 -0.34 -0.856 -2.024 0.582 -1.536a44 44 0 0 0 15.074 2.104c1.02 -0.026 1.22 1.372 -0.086 1.56Z" fill="#262f3f" stroke-width="2"></path>
  <path d="M49.2 362.4a1.15 1.15 0 1 0 -1.974 1.184c0.122 0.2 13.054 20.882 11.86 22.178 -1.548 1.678 -33.288 -18.61 -36.028 -23.026 -1.744 -2.812 3.212 -6.124 6.524 -10.498 0.788 -1.04 -0.556 -2.694 -1.626 -1.766a43.676 43.676 0 0 0 -6.386 7.2c-4.242 5.756 1.982 9.456 6.032 12.494a205.276 205.276 0 0 0 24.146 15.458c4.694 2.588 13 5.414 8.8 -3.562A143.756 143.756 0 0 0 49.2 362.4Z" fill="#262f3f" stroke-width="2"></path>
  <path d="M161.33 381.6a153.53 153.53 0 0 0 -20.922 -10 1.354 1.354 0 1 0 -1 2.516c5.474 2.15 10.852 4.576 16.072 7.184 2.37 1.184 10.744 4.974 3.422 5.158l-41.644 1.014c-4.82 0.106 -4.8 -0.646 -3.854 -5.174a46.228 46.228 0 0 1 3.07 -9.088c0.52 -1.176 -1.348 -2.294 -2.01 -1.134a31.336 31.336 0 0 0 -3.4 9.2c-2 9.65 2.134 8.78 9.716 8.626l39.372 -0.876c6.212 -0.158 6.148 -4.006 1.178 -7.426Z" fill="#262f3f" stroke-width="2"></path>
  <path d="M218.846 343.97c40.844 6.25 93.8 10.458 135.28 13.338 1.674 0.116 1.672 -2.486 0 -2.6 -45.178 -2.932 -94.766 -8 -135.08 -12.818 -1.106 -0.126 -1.382 1.898 -0.2 2.08Z" fill="#262f3f" stroke-width="2"></path>
  <path d="M375.586 57.8c-0.226 -10.576 -1.174 -29.466 -14.108 -31.866 -1.06 -0.2 -1.532 1.524 -0.536 1.826 11.288 3.428 11.558 20.354 12.172 30.318a0.238 0.238 0 0 1 0 0.106c1.028 106.944 4.476 189.112 3.684 293.862 -0.094 12.28 -5.648 23.84 -14.644 26.74 -0.892 0.286 -0.736 1.948 0.384 1.78 11.8 -1.772 17.33 -17.914 17.314 -28.49 -0.148 -98.476 -2.04 -189.76 -4.266 -294.276Z" fill="#262f3f" stroke-width="2"></path>
  <path d="M276.746 35.648c-5.742 1.072 -4.6 11.2 0.738 10.622 5.848 -0.64 5.694 -11.822 -0.738 -10.622Zm0.276 2.472c2.364 -0.566 3.168 4.278 0.338 5.372 -2.206 0.854 -2.394 -4.88 -0.338 -5.372Z" fill="#262f3f" stroke-width="2"></path>
  <path d="M215.96 62.558c42.626 -4.8 87.484 -11.312 130.614 -16.886 1.81 -0.234 1.8 -3.072 0 -2.84 -43.342 5.62 -91.678 11.586 -130.952 17.254 -1.396 0.202 -1.058 2.628 0.338 2.472Z" fill="#262f3f" stroke-width="2"></path>
  <path d="M361.264 56.954c-0.172 -22.288 0.782 -42.662 -28.782 -38.128 -32.512 4.984 -66.084 11.4 -98.516 15.488 -27.984 3.52 -26.452 22.534 -26.31 46.848 0.178 30.362 0.4 59.98 0.782 92.346 0.014 1.12 2 1.028 1.98 0 -0.516 -33.356 -0.144 -66 -0.168 -98.334 -0.016 -21.574 0.55 -34.974 24.222 -38.374 33.072 -4.752 66.082 -10.358 99.13 -15.35 21.736 -3.284 24.918 9.41 25.082 28.98 0.848 100.16 2.854 200.304 4.038 300.462 0.26 22.058 -4.498 31.772 -28.044 28.52 -33.356 -4.6 -69.84 -5.938 -102.17 -11.574 -19.954 -3.478 -19.982 -18.42 -19.956 -34.568 0.062 -37.316 -0.836 -78.158 -1.534 -116.214 -0.022 -1.228 -1.86 -1.044 -1.858 0.122 0.076 37.654 0.33 79.098 0.738 117.444 0.18 17 1.534 32.446 22.38 35.78 33.77 5.4 68.154 7.678 102.844 11.666 22.58 2.6 30.8 -6.462 30.6 -29.84 -0.872 -98.518 -3.702 -196.896 -4.458 -295.274Z" fill="#262f3f" stroke-width="2"></path>
  <path d="M331.04 109.774c-4.068 -0.2 -15.212 2.042 -19.096 2.902a134.51 134.51 0 0 0 3.822 39c0.28 0.95 -1.338 1.214 -1.658 0.338 -3.17 -8.68 -4.482 -21.722 -4.942 -31.07a33.956 33.956 0 0 0 -11.298 -4.4c-3.776 1.964 -14.782 13.17 -19.248 14.72 -2.718 -1.95 -4.6 -4.084 -7.2 -11.052 -17.422 5.034 -30.838 31.16 -36.656 39.02s-16.716 17 -33.6 30.07a64.434 64.434 0 0 1 9.21 18.2 143.16 143.16 0 0 0 40.6 -23.854A248.356 248.356 0 0 1 256 146.292c0.268 -1.23 1.8 -0.982 1.536 0.23 -4.314 27.016 -5.066 43.44 -2.2 70.534 18.682 5.54 53 5.8 70.288 -1.766 0.23 -10.622 0.368 -19.648 0.338 -24.714 -8.626 -3.316 -18.438 -21.342 -22.442 -29.164 -0.432 -0.844 0.74 -1.646 1.258 -0.844 4.326 6.674 14.966 25.438 22.458 27.538 6.37 1.784 13.458 -2.978 14.812 -11.82 1.468 -9.5 -6.742 -58.99 -11.008 -66.512Z" fill="#f6be17" stroke-width="2"></path>
  <path d="M147.914 163c-4.8 -8.076 -21.092 -46.926 -43.456 -50.318 -9.2 4.36 -21.382 4.944 -25.588 -0.752 -15.534 3.34 -23.77 20.346 -27.07 34.392 -0.278 1.182 -1.858 0.982 -1.536 -0.214a69.422 69.422 0 0 1 4.222 -13.924c-0.492 -1.734 -1.122 -4.098 -2.042 -7.858 -3.2 -0.876 -15.842 0.292 -20.646 1.304 -2.034 33.77 6.132 55.55 11.06 62.106 2.08 2.768 7.676 4.222 12.08 3.8a228.8 228.8 0 0 1 7.538 -55.874 0.71 0.71 0 0 1 1.38 0.338c-6.342 25.964 -7.674 52 -6.14 78.538 16.058 7.86 49.32 10.484 76.244 2.102 -1.304 -9.362 -2.424 -17.268 -3.07 -21.934 -15.522 -12 -19.902 -15.644 -28.766 -36.042 -0.446 -1.028 0.814 -1.704 1.336 -0.692 4.6 8.922 9.18 18.224 16.886 24.776a140.13 140.13 0 0 0 49.902 28.736 48.236 48.236 0 0 1 10.316 -20.554C176.956 188.474 151.17 168.486 147.914 163Z" fill="#f6be17" stroke-width="2"></path>
  <path d="M242.116 291.748c-21.874 0 -18.418 42.708 1.2 43.978 22.318 1.446 18.694 -43.978 -1.2 -43.978Zm-2.746 11.176c1.16 -3.298 5.034 -3.332 6.14 0.368 0.614 2.056 0.89 9.886 -0.17 11.988a3.254 3.254 0 0 1 -5.572 -0.26c-1.214 -2.182 -1.298 -9.546 -0.398 -12.096Zm4.082 20.108c0.092 1.78 0 3.484 0.246 5.356s-2.118 1.674 -2.4 0.232a34.436 34.436 0 0 1 -0.23 -5.742c-6.54 -1.304 -7.27 -9.4 -6.662 -14.122 0.108 -0.844 1.704 -0.966 1.75 0 0.228 4.8 -0.292 10.746 5.986 11.6s6.47 -7.78 6.386 -11.988c-0.032 -1.626 1.916 -1.534 2 0 0.272 5.562 0.338 14.08 -7.076 14.664Z" fill="#f6be17" stroke-width="2"></path>
  <path d="M280.982 293.974c-23.026 0.728 -20.318 42.134 -0.644 44.424 24.842 2.89 22.794 -45.122 0.644 -44.424Zm0.354 29.304c-1.428 1.044 -9.578 -0.37 -10.484 -1.458 -1.366 -1.644 -1.382 -10.24 -0.23 -11.268s10.864 0.554 11.496 1.904c0.514 1.094 0.4 10 -0.812 10.882Zm8.58 3.222c-1.704 0 -5.832 -7.566 -5.848 -8.642s5.342 -7.552 6.8 -7.076c1.09 0.43 0.354 15.734 -0.982 15.78Z" fill="#f6be17" stroke-width="2"></path>
  <path d="M320.894 296.506c-22.29 -0.948 -22.92 44.478 0.904 44.8 22.458 0.294 23.302 -43.768 -0.904 -44.8Zm12.694 22.35c0.322 1.044 0.106 4.76 -1.228 5.726a10.552 10.552 0 0 1 -7.8 -0.352c-0.672 -0.588 -0.4 -3.776 -0.354 -4.284 0.266 -2.482 -8.442 -2.272 -8.18 -0.2s0.12 3.652 -0.476 4.054c-0.862 0.58 -5.374 0.828 -6.556 -0.446a8.714 8.714 0 0 1 -0.414 -5.618c4.144 -7.582 22.842 -6.248 25.036 1.12Z" fill="#f6be17" stroke-width="2"></path>
  <path d="M179.442 20.2c-0.964 -0.664 -2.146 0.78 -1.304 1.536 2.084 1.872 12.74 11.266 15.35 12.28a1 1 0 0 0 1.136 -1.428c-1.474 -2.266 -12.918 -10.824 -15.182 -12.388Z" fill="#f6be17" stroke-width="2"></path>
  <path d="M209.4 23.6c0.158 -1.532 -3.236 -11.154 -3.868 -13.016a1.068 1.068 0 0 0 -2.012 0.4c0.018 2.41 2.456 11.666 4.176 13.2a1 1 0 0 0 1.704 -0.584Z" fill="#f6be17" stroke-width="2"></path>
  <path d="M187.348 50.692c-1.32 -0.722 -12.648 0.46 -14.49 0.952a1.06 1.06 0 0 0 0.106 2.04c1.29 0.14 13.094 -0.138 14.46 -1.182a1.058 1.058 0 0 0 -0.076 -1.81Z" fill="#f6be17" stroke-width="2"></path>
</svg>