<svg width="37" height="31" viewBox="0 0 37 31" fill="none" xmlns="http://www.w3.org/2000/svg">
<path d="M26.3967 3.17669L29.0491 0.524316C29.3843 0.189159 29.8387 0.000606546 30.3128 1.87775e-06C30.6455 -0.000480403 30.9717 0.0919482 31.2547 0.266877C31.5377 0.441805 31.7663 0.692284 31.9146 0.9901L32.654 2.46446L28.3147 5.36021L26.3967 3.17669Z" fill="#799372"/>
<path d="M13.5544 17.2513H13.4447C11.9037 17.2514 10.3917 16.8327 9.07028 16.04L8.23791 15.5403C8.08807 15.4505 7.91665 15.403 7.74193 15.403C7.48604 15.403 7.24063 15.5046 7.05969 15.6855C6.87875 15.8665 6.7771 16.1119 6.7771 16.3678C6.77794 16.9473 6.92637 17.517 7.20838 18.0233C8.28632 19.964 10.0241 21.4541 12.1065 22.2234L14.6991 22.6164L15.7798 16.9432L13.5544 17.2513Z" fill="#F6BE17"/>
<path d="M7.69757 15.9365C7.87239 15.9297 8.04578 15.9705 8.19909 16.0548L9.04933 16.5225C10.3995 17.2654 11.9262 17.6275 13.4663 17.5699L13.5753 17.5649L15.7348 17.1829L15.7798 16.9457L13.5544 17.2513H13.4447C11.9037 17.2514 10.3917 16.8328 9.07028 16.04L8.23791 15.5404C8.0915 15.4526 7.92444 15.4053 7.75377 15.4032C7.5831 15.4011 7.41492 15.4443 7.26641 15.5285C7.1179 15.6126 6.99436 15.7346 6.9084 15.8821C6.82243 16.0295 6.77713 16.1971 6.7771 16.3678C6.7771 16.4744 6.78757 16.5798 6.79743 16.6851C6.84409 16.4786 6.95761 16.2933 7.12038 16.158C7.28314 16.0226 7.48604 15.9448 7.69757 15.9365Z" fill="#F6BE17"/>
<path d="M24.0316 18.7916C24.4015 19.3247 24.9139 19.743 25.5103 19.9985C26.9705 20.6243 28.5425 20.9471 30.1311 20.9474C31.3924 20.9473 32.6454 20.7441 33.842 20.3454L35.5671 19.7693C35.6766 19.7333 35.7913 19.7152 35.9066 19.7157C36.0459 19.7157 36.1838 19.743 36.3125 19.7963C36.4411 19.8495 36.5581 19.9276 36.6565 20.0261C36.755 20.1246 36.8331 20.2415 36.8864 20.3702C36.9396 20.4989 36.967 20.6368 36.9669 20.7761C36.9671 21.023 36.9129 21.2669 36.8082 21.4905C36.7036 21.7141 36.551 21.9119 36.3613 22.0699C34.3639 23.734 31.8462 24.6451 29.2464 24.6447C28.1163 24.6448 26.9889 24.5353 25.8799 24.3175L23.121 23.5849L22.3761 20.3811L24.0316 18.7916Z" fill="#F6BE17"/>
<path d="M35.5715 19.77L33.8464 20.3461C31.1199 21.2546 28.1549 21.1312 25.5134 19.9992C24.917 19.7436 24.4046 19.3254 24.0347 18.7922L23.439 19.3634L23.7402 20.6572L26.4992 21.3898C27.6082 21.607 28.7356 21.7164 29.8657 21.7163C32.1189 21.7159 34.3188 21.0305 36.1734 19.7509C35.9766 19.6963 35.7679 19.7023 35.5746 19.7682L35.5715 19.77Z" fill="#F6BE17"/>
<path d="M32.038 29.3888C32.0389 29.5752 32.0029 29.7599 31.9321 29.9323C31.8612 30.1046 31.7569 30.2613 31.6251 30.393C31.4933 30.5248 31.3367 30.6292 31.1643 30.7C30.992 30.7709 30.8073 30.8069 30.6209 30.8059H28.3413C26.8847 30.8065 25.4424 30.52 24.0966 29.9629C22.7509 29.4057 21.5281 28.5889 20.4981 27.559C19.4682 26.529 18.6514 25.3062 18.0942 23.9605C17.5371 22.6147 17.2506 21.1723 17.2512 19.7158V18.4836L17.1588 19.2784C16.8435 21.9447 15.5612 24.4027 13.5546 26.1867C11.5481 27.9706 8.95692 28.9565 6.27205 28.9575C4.20431 28.96 2.19785 28.2556 0.585309 26.9613C0.40259 26.8148 0.255127 26.6291 0.153817 26.418C0.0525065 26.2068 -6.05609e-05 25.9756 5.23586e-08 25.7414C0.000651026 25.4508 0.116403 25.1722 0.32193 24.9667C0.527457 24.7611 0.806025 24.6454 1.09668 24.6447C1.18584 24.6455 1.27466 24.6558 1.36161 24.6755C2.91104 25.0637 4.50223 25.2603 6.09953 25.2609C7.07885 25.262 8.04878 25.0699 8.95378 24.6957C9.85877 24.3214 10.681 23.7724 11.3735 23.0799C12.066 22.3874 12.6151 21.5651 12.9894 20.6601C13.3636 19.7551 13.5557 18.7852 13.5545 17.8059V15.2182C13.5538 12.0986 14.7551 9.09866 16.9087 6.84175C19.0624 4.58484 22.0028 3.24448 25.119 3.09917C25.31 3.08685 25.501 3.08069 25.692 3.08069C26.3946 3.08069 27.0685 3.35981 27.5653 3.85665C28.0621 4.35349 28.3413 5.02735 28.3413 5.72999C28.3407 7.21787 27.9176 8.67501 27.1214 9.9319L26.0432 11.6201C24.729 13.6909 24.0303 16.0925 24.0285 18.5452C24.0283 20.6687 24.7092 22.7364 25.9712 24.4442C27.2333 26.1521 29.0098 27.4101 31.0398 28.0334C31.3288 28.1236 31.5815 28.3038 31.761 28.5476C31.9405 28.7913 32.0376 29.0861 32.038 29.3888Z" fill="#F6BE17"/>
<path d="M32.038 29.3888C32.0389 29.5752 32.003 29.7599 31.9321 29.9323C31.8612 30.1046 31.7569 30.2613 31.6251 30.393C31.4933 30.5248 31.3367 30.6292 31.1644 30.7C30.992 30.7709 30.8073 30.8069 30.6209 30.8059H28.3413C26.8848 30.8065 25.4424 30.52 24.0966 29.9629C22.7509 29.4057 21.5281 28.5889 20.4982 27.559C19.4682 26.529 18.6514 25.3062 18.0942 23.9605C17.5371 22.6147 17.2507 21.1723 17.2512 19.7158V16.1115C17.2519 13.4314 17.9853 10.8025 19.372 8.50905C20.7587 6.21559 22.746 4.34487 25.119 3.09917C25.31 3.08685 25.501 3.08069 25.692 3.08069C26.3946 3.08069 27.0685 3.35981 27.5653 3.85665C28.0622 4.35349 28.3413 5.02735 28.3413 5.72999C28.3407 7.21787 27.9177 8.67501 27.1214 9.9319L26.0432 11.6201C24.729 13.6909 24.0303 16.0925 24.0285 18.5452C24.0283 20.6687 24.7092 22.7364 25.9713 24.4442C27.2333 26.1521 29.0099 27.4101 31.0399 28.0334C31.3289 28.1236 31.5815 28.3038 31.761 28.5476C31.9405 28.7913 32.0376 29.0861 32.038 29.3888Z" fill="#F6BE17"/>
<path d="M32.0379 29.3889C32.0375 29.0861 31.9405 28.7914 31.761 28.5476C31.5815 28.3038 31.3288 28.1237 31.0398 28.0334C29.0098 27.4101 27.2333 26.1521 25.9712 24.4443C24.7092 22.7364 24.0283 20.6688 24.0285 18.5452C24.0303 16.0926 24.729 13.691 26.0431 11.6201L27.1213 9.93195C27.9176 8.67507 28.3407 7.21793 28.3413 5.73004C28.3424 5.28908 28.2328 4.85489 28.0225 4.46733C27.8121 4.07978 27.5078 3.75129 27.1374 3.51202C25.2239 4.87027 23.6635 6.66694 22.5867 8.75177C21.5099 10.8366 20.948 13.149 20.9479 15.4955V19.0998C20.9449 21.9996 22.0801 24.7848 24.1093 26.8564C26.1385 28.928 28.8996 30.1205 31.7989 30.1775C31.9549 29.9441 32.0381 29.6696 32.0379 29.3889Z" fill="#F6BE17"/>
<path d="M2.01778 25.5195C2.10696 25.5169 2.19618 25.5237 2.28394 25.5398C3.84679 25.8695 5.44423 26.0058 7.04034 25.9459C8.01902 25.9099 8.981 25.6812 9.87118 25.273C10.7614 24.8647 11.5623 24.2848 12.228 23.5666C12.8938 22.8483 13.4113 22.0058 13.751 21.0873C14.0907 20.1687 14.2459 19.1922 14.2076 18.2136L14.1096 15.6259C13.9947 12.5593 15.0471 9.56311 17.0545 7.24193C19.0619 4.92074 21.875 3.44727 24.9261 3.11877C21.8471 3.3102 18.9568 4.6682 16.844 6.91619C14.7312 9.16417 13.5548 12.133 13.5545 15.2181V17.8057C13.5557 18.7851 13.3636 19.755 12.9894 20.66C12.6151 21.565 12.066 22.3873 11.3735 23.0798C10.681 23.7722 9.85877 24.3213 8.95378 24.6956C8.04878 25.0698 7.07885 25.2619 6.09953 25.2607C4.50223 25.2602 2.91104 25.0636 1.36161 24.6754C1.27466 24.6557 1.18584 24.6454 1.09668 24.6446C0.806025 24.6453 0.527457 24.761 0.32193 24.9666C0.116403 25.1721 0.000651026 25.4507 5.23586e-08 25.7413C-6.05609e-05 25.9755 0.0525065 26.2067 0.153817 26.4179C0.255127 26.629 0.40259 26.8147 0.585309 26.9612C0.78493 27.121 0.990301 27.2717 1.20142 27.4134C1.05781 27.1862 0.975845 26.9254 0.963603 26.6569C0.953267 26.3664 1.05837 26.0837 1.25592 25.8706C1.45348 25.6574 1.7274 25.5312 2.01778 25.5195Z" fill="#F6BE17"/>
<path d="M31.9147 0.990247C31.7097 0.583416 31.3571 0.27024 30.9289 0.114746C30.6845 0.202325 30.462 0.342143 30.2771 0.524463L28.7368 2.06475C28.4349 2.36653 28.2592 2.77193 28.2455 3.19857C28.2318 3.62521 28.381 4.04107 28.6629 4.36163L29.0855 4.84159L32.654 2.46461L31.9147 0.990247Z" fill="#799372"/>
</svg>
